<?xml version="1.0" encoding="UTF-8"?>
<!DOCTYPE svg PUBLIC "-//W3C//DTD SVG 1.1//EN" "http://www.w3.org/Graphics/SVG/1.1/DTD/svg11.dtd">
<!-- Creator: CorelDRAW SE -->
<svg xmlns="http://www.w3.org/2000/svg" xml:space="preserve" width="297mm" height="210mm" version="1.1" style="shape-rendering:geometricPrecision; text-rendering:geometricPrecision; image-rendering:optimizeQuality; fill-rule:evenodd; clip-rule:evenodd"
viewBox="0 0 29700 21000"
 xmlns:xlink="http://www.w3.org/1999/xlink">
 <defs>
  <style type="text/css">
   <![CDATA[
    .str1 {stroke:#2B2A29;stroke-width:100}
    .str2 {stroke:#2B2A29;stroke-width:50}
    .str3 {stroke:#2B2A29;stroke-width:20}
    .str0 {stroke:#2B2A29;stroke-width:7.62}
    .fil1 {fill:none}
    .fil3 {fill:#2B2A29}
    .fil0 {fill:#2B2A29}
    .fil2 {fill:#2B2A29;fill-rule:nonzero}
   ]]>
  </style>
 </defs>
 <g id="Warstwa_x0020_1">
  <metadata id="CorelCorpID_0Corel-Layer"/>
  <g id="_588044496">
   <path class="fil0 str0" d="M13907 14113c-551,-1646 -979,-2761 1059,-3813 154,-79 290,-172 425,-234 284,-127 974,-335 975,-335 -79,-212 -1461,-287 -1863,-176 -163,44 -274,42 -429,98 -817,299 -1717,927 -1894,1790 -246,1204 501,2559 1727,2670zm-1868 -1169c-35,-180 -201,-395 -265,-625 -63,-228 -104,-530 -60,-811 74,-471 337,-787 590,-1120 205,-269 634,-543 985,-719 616,-310 1870,-332 2561,-208 607,110 617,209 836,258 -51,-308 -1182,-630 -1509,-697 -629,-129 -1336,-212 -2047,-137 -1129,119 -2262,992 -2265,2134 0,423 73,892 317,1228 121,167 636,654 857,697zm-1548 -1932c25,-563 -28,-639 193,-1099 104,-219 334,-528 552,-701 522,-414 1170,-534 1978,-533 1040,1 1294,9 2268,281 797,223 1565,783 1691,798 -143,-449 -1393,-910 -1861,-1118 -712,-316 -1442,-589 -2377,-596 -519,-4 -883,56 -1319,201 -681,228 -1362,793 -1416,1589 -19,283 62,1070 291,1178zm4975 -5258l170 198c64,66 87,105 77,221 -294,-1 -629,-172 -827,-106 -120,40 -2,-35 -93,63 286,56 700,38 902,248 295,306 -187,660 164,815 6,-7 11,-18 13,-24 228,-446 284,-150 440,-11l172 -149c61,-49 -20,0 72,-45 164,88 250,266 78,407l-414 219c-4,-7 -17,11 -24,17 132,193 341,70 316,339 -498,56 -870,-280 -1154,-500 -91,-70 -747,-561 -874,-587 -66,-13 -32,-3 -77,1l-53 16c91,115 304,182 455,283 399,265 860,714 1266,893 592,259 959,-139 1165,-98 140,28 90,78 323,86 91,3 259,-1 347,-15 70,-11 460,-90 488,-188 4,-14 15,-14 22,-21l-251 -189c-962,-553 -1105,-1387 -1461,-1204 84,151 524,157 466,590 -565,130 -1003,-1205 -1708,-1259zm69 2437c41,73 7,75 136,126 53,21 117,27 174,40 104,24 240,65 344,107 220,87 411,198 610,291 1126,528 2004,1259 1918,2578 -21,330 -131,446 -174,691 243,-45 725,-630 857,-840 120,-191 310,-1270 141,-1465 -46,275 -72,1719 -653,1830 -185,-344 78,-1011 -356,-1569 -133,-170 -327,-351 -463,-511 -322,-380 -151,-597 -336,-678 -266,-116 -332,63 -435,-527 -344,-26 -583,-9 -918,-7 -282,1 -536,-89 -845,-66zm506 5125c-27,-31 -16,-21 -58,-55 -712,-572 -662,-362 -926,-1340 -133,-952 518,-1577 614,-1795 -370,27 -622,383 -795,675 -208,351 -228,634 -231,1142 -2,314 228,878 400,1144 216,335 332,449 868,292 39,-11 46,-17 79,-33l49 -30zm-3546 -6357c879,-292 2185,398 2096,841 -342,56 -516,-62 -802,-136 -706,-183 -2150,-141 -2380,354 195,-17 900,-525 1902,-264 276,71 576,178 889,270l824 303c128,-94 77,-175 218,-208 169,-39 205,33 347,-59 -32,-38 -12,-21 -62,-56 -6,-4 -15,-10 -22,-14l-121 -53c-240,-108 -595,-527 -1304,-882 -246,-123 -671,-279 -969,-288 -365,-10 -852,25 -944,314 124,-23 216,-84 328,-122zm2481 6740c-74,-207 -713,-337 -762,-1427 -45,-1001 503,-1329 614,-1579 -564,63 -942,806 -960,1475 -6,241 81,809 170,1022 118,282 234,537 498,687 86,-8 363,-137 440,-178zm2048 -923c-31,-15 -68,-27 -99,-35 -486,-118 -753,-344 -967,-957 -320,-914 222,-1540 265,-1725 -303,46 -520,452 -602,747 -113,402 -33,777 63,1146 321,1240 1216,1114 1431,877l-91 -53zm-6735 -4207c74,-33 68,-113 119,-215 131,-255 237,-385 393,-621 446,-673 875,-852 1540,-1172l938 -381c-118,-76 -471,-34 -631,1 -830,184 -1640,684 -2067,1401 -101,170 -411,731 -292,987zm5407 -79l46 93c131,176 -135,-106 39,42 109,92 1227,461 2095,1351 72,73 545,616 559,625 83,-130 -3,-366 -71,-485 -422,-736 -2049,-1593 -2668,-1626zm-4554 -1942c321,-68 1087,-1059 2869,-910 99,8 141,27 248,30 55,2 79,2 132,-10 74,-17 38,-5 80,-35 -135,-183 -767,-171 -978,-170 -811,3 -2147,317 -2351,1095zm4179 518c143,134 241,303 385,357 -3,-128 -124,-314 -173,-432 -64,-156 -48,-260 -85,-425l-17 -60c-6,-74 -836,-517 -1581,-321 -154,40 -110,13 -152,99 94,47 504,50 693,116 282,98 716,466 930,666zm-2757 -1801c228,-18 236,-210 673,-348 633,-202 1244,-137 1855,8 242,58 640,241 860,270 -43,-95 -37,-108 -156,-177 -60,-35 -128,-71 -176,-96 -266,-140 -1135,-327 -1431,-342 -407,-22 -683,13 -1005,136 -220,85 -557,344 -620,549zm5337 969c147,345 215,287 344,554 171,355 -24,424 -136,492 -44,27 -39,21 -69,49 79,148 79,88 248,185 87,50 164,111 247,168 386,266 795,739 889,1197 36,176 -16,235 91,334 87,-126 21,-355 -27,-499 -293,-876 -552,-473 -853,-1478 -50,-166 -102,-260 -174,-387 -143,-254 -290,-551 -560,-615zm-3 2090c156,0 300,-28 470,-30 326,-4 334,-294 -183,-144 -300,87 -226,58 -287,174z"/>
   <path class="fil1 str1" d="M14850 3112c3442,0 6231,2790 6231,6231 0,3442 -2789,6232 -6231,6232 -3442,0 -6231,-2790 -6231,-6232 0,-3441 2789,-6231 6231,-6231z"/>
   <path class="fil2" d="M12211 2733c-36,-106 -50,-200 -43,-283 6,-61 22,-119 49,-175 27,-56 61,-103 102,-140 56,-49 126,-88 211,-117 153,-51 292,-45 416,19 124,64 215,181 272,350 57,168 56,315 -4,441 -59,126 -165,215 -317,266 -155,52 -294,47 -417,-17 -123,-63 -213,-178 -269,-344zm214 -80c40,118 97,198 172,240 75,43 155,50 238,21 84,-28 143,-81 176,-160 34,-78 30,-178 -11,-299 -40,-119 -97,-199 -169,-240 -72,-41 -151,-47 -238,-17 -87,29 -146,82 -179,159 -33,78 -30,176 11,296zm1145 235l-136 -1089 463 -57c116,-15 202,-15 257,-2 56,13 102,42 140,88 38,46 61,101 69,166 10,81 -5,152 -46,211 -42,59 -109,101 -203,127 51,22 94,47 129,77 35,29 84,83 147,161l159 196 -263 33 -187 -218c-67,-78 -113,-126 -136,-146 -24,-19 -48,-31 -72,-36 -25,-6 -62,-5 -113,1l-44 6 56 454 -220 28zm142 -655l163 -21c105,-13 170,-26 195,-38 25,-12 44,-30 56,-53 12,-24 16,-52 12,-85 -4,-37 -18,-65 -40,-85 -22,-20 -52,-31 -88,-33 -18,0 -72,5 -161,17l-171 21 34 277zm862 536l5 -199 598 -696 -512 -14 5 -185 802 22 -4 172 -621 722 623 18 -5 185 -891 -25zm1032 39l196 -1079 799 145 -34 183 -580 -106 -43 240 539 98 -33 182 -539 -98 -53 293 601 109 -33 182 -820 -149zm1189 -316l175 -520 211 71 -116 343 298 -116 -57 170 -298 115 -118 352 521 175 -59 176 -732 -247 119 -351 -142 55 57 -168 141 -55z"/>
   <path class="fil1 str1" d="M14850 1110c4547,0 8233,3686 8233,8233 0,4547 -3686,8233 -8233,8233 -4547,0 -8233,-3686 -8233,-8233 0,-4547 3686,-8233 8233,-8233z"/>
   <path class="fil2" d="M11445 16275l454 -998 324 147c122,55 200,96 232,123 50,41 84,96 99,163 16,68 6,142 -30,221 -28,62 -63,108 -104,140 -41,31 -84,51 -129,60 -45,8 -87,8 -126,-1 -52,-12 -124,-39 -215,-80l-131 -60 -171 377 -203 -92zm580 -738l-130 285 110 50c80,36 135,54 166,56 32,2 60,-5 85,-21 26,-15 45,-38 59,-67 16,-37 19,-72 9,-105 -11,-33 -31,-60 -61,-81 -22,-16 -69,-40 -141,-73l-97 -44zm364 1130l303 -1054 448 129c113,33 192,66 238,100 45,33 76,79 93,136 17,57 16,117 -2,179 -22,79 -64,138 -125,176 -62,38 -140,51 -236,38 38,40 67,80 88,121 20,40 44,109 71,206l70 242 -255 -73 -86 -274c-31,-98 -54,-160 -68,-187 -14,-27 -31,-48 -52,-62 -20,-15 -55,-29 -104,-43l-43 -12 -127 440 -213 -62zm388 -546l158 45c102,30 166,43 194,42 28,-1 53,-10 73,-27 20,-17 35,-42 44,-73 10,-36 9,-67 -3,-95 -13,-27 -36,-48 -69,-64 -16,-7 -68,-23 -154,-48l-166 -48 -77 268zm587 811l26 -197 665 -632 -508 -66 24 -184 796 104 -22 170 -691 656 618 81 -24 183 -884 -115zm1466 130l-10 -462 -416 -626 260 -6 268 429 243 -440 255 -6 -388 646 10 460 -222 5zm674 -575l-71 -543 221 -29 46 359 217 -235 23 177 -217 234 48 369 546 -72 24 184 -766 100 -48 -368 -103 111 -23 -175 103 -112zm987 415l-302 -1054 780 -224 51 178 -567 163 67 234 528 -151 51 178 -528 151 82 286 588 -169 51 179 -801 229zm746 -214c-7,9 -13,20 -18,31 -5,11 -8,22 -11,33 -2,12 -3,23 -3,34 0,12 1,22 4,31 4,16 12,28 24,37 12,8 27,9 47,4 9,-3 18,-7 28,-13 10,-7 19,-13 28,-18l34 120c-35,31 -68,51 -100,60 -27,8 -52,11 -74,9 -21,-1 -41,-6 -58,-15 -16,-8 -30,-20 -42,-35 -11,-15 -19,-31 -24,-50 -8,-28 -8,-59 0,-94 8,-35 23,-68 45,-99l120 -35zm243 -63l-452 -999 202 -91 200 442 208 -627 271 -122 -201 559 673 431 -261 118 -487 -345 -88 241 137 302 -202 91zm992 -464l-544 -952 193 -110 544 952 -193 110z"/>
   <g>
    <path class="fil0 str0" d="M22095 10702c-7,-6 -12,-7 -12,-7 0,0 5,2 12,7l0 0zm-321 -576c-19,-19 -23,-22 -23,-22 0,0 9,9 23,22l0 0zm-210 1165c1,-3 1,-6 2,-9 0,0 -1,3 -2,9l0 0zm1154 -891c3,-1 7,-3 10,-4 0,0 -3,1 -10,4l0 0zm-1195 887c0,-1 0,-2 0,-2 0,0 0,1 0,2l0 0zm1136 -995c-71,194 -248,382 -248,382 0,0 55,-65 140,-201 86,-137 99,-234 99,-234 0,0 -14,40 -40,102 -25,62 -111,192 -111,192 0,0 9,-34 76,-145 67,-111 95,-279 95,-279 0,0 -26,128 -89,249 -60,112 -156,233 -169,248 5,-7 29,-43 127,-223 117,-216 115,-438 115,-438 -5,239 -196,535 -196,535 0,0 40,-61 96,-213 55,-152 71,-361 71,-361 0,0 -1,24 -37,189 -37,164 -107,285 -107,285 95,-243 141,-544 141,-544 0,0 -57,288 -131,476 -74,188 -119,214 -119,214 105,-122 147,-385 183,-569 36,-184 133,-287 133,-287 0,0 -96,86 -135,262 -38,177 -150,368 -150,368 184,-376 146,-541 146,-541 -21,338 -160,528 -160,528 215,-392 129,-836 129,-836 0,0 4,32 -1,161 -3,95 -51,231 -76,296 41,-117 55,-305 39,-424 -18,-132 57,-219 57,-219 0,0 -80,70 -66,223 14,152 -63,439 -63,439 51,-258 0,-557 0,-557 17,180 -84,412 -84,412 91,-255 42,-398 42,-398 19,167 -55,378 -55,378 96,-372 -25,-492 -25,-492 66,136 19,302 19,302 6,-248 -90,-331 -90,-331 81,139 70,322 70,322 -7,-191 -79,-283 -79,-283 42,91 19,198 19,198 5,-189 -134,-300 -168,-325 13,10 45,40 99,119 75,108 39,284 39,284 13,-257 -145,-365 -145,-365 94,105 91,216 91,216 -21,-105 -87,-165 -87,-165 54,61 41,149 41,149 -18,-113 -55,-138 -55,-138 29,33 26,114 26,114 -18,-83 -93,-157 -93,-157 52,67 48,133 48,133 -42,-103 -139,-150 -139,-150 0,0 30,17 73,64 42,47 37,110 37,110 0,0 0,-8 -43,-74 -43,-66 -102,-78 -102,-78 68,36 81,105 81,105 -87,-89 -174,-90 -199,-89 11,1 36,6 83,34 70,40 98,70 98,70 0,0 -68,-5 -110,-46 -42,-41 -116,-39 -116,-39 0,0 70,14 117,65 48,51 153,91 153,91 0,0 -11,9 -59,-2 -47,-10 -111,-73 -111,-73 45,88 92,108 92,108 -69,-12 -149,-153 -149,-153 0,0 0,0 43,83 44,84 101,130 101,130 -82,-43 -141,-155 -141,-155 45,130 168,201 168,201 -66,-15 -157,-121 -157,-121 99,148 197,149 197,149 -127,-2 -206,-121 -206,-121 94,164 241,164 241,164 -166,16 -295,-169 -295,-169 90,172 319,226 319,226 -87,9 -258,-119 -258,-119 157,143 301,161 301,161 0,0 -7,23 -109,-12 -101,-34 -180,-130 -180,-130 76,124 268,241 268,241 -58,-17 -182,-127 -249,-198 -66,-71 -134,-52 -134,-52 0,0 68,-11 130,68 61,78 247,212 247,212 0,0 -111,-41 -207,-138 -96,-97 -185,-108 -185,-108 0,0 100,39 166,114 67,74 227,176 227,176 0,0 -80,1 -235,-134 -155,-135 -195,-113 -195,-113 0,0 38,-2 97,50 59,51 273,233 273,233 -118,-18 -343,-253 -343,-253 198,272 443,305 443,305 -226,20 -453,-279 -453,-279 179,285 461,314 461,314 -231,-8 -432,-214 -432,-214 207,237 443,242 443,242 -200,30 -442,-201 -442,-201 228,245 451,223 451,223 -114,72 -419,-155 -419,-155 282,255 427,176 427,176 0,0 -108,64 -252,-35 -144,-98 -216,-69 -216,-69 0,0 43,-16 164,68 120,85 315,74 315,74 -278,39 -403,-90 -412,-100 90,103 257,130 303,121 35,-7 78,8 98,17 -15,-4 -48,-5 -118,15 -111,31 -186,-63 -186,-63 0,0 5,12 47,46 42,34 106,40 166,25 48,-12 113,29 137,45 -36,-20 -123,-24 -172,-18 -54,6 -113,-29 -113,-29 56,54 183,52 223,63 40,10 88,32 88,32 0,0 -63,-19 -178,-30 -84,-9 -170,-80 -210,-118 10,11 24,25 43,46 57,60 176,90 222,96 34,3 75,27 96,39 -28,-15 -67,-24 -123,-28 -66,-5 -186,-92 -186,-92 67,70 206,111 258,127 53,15 101,56 101,56 -29,-20 -83,-35 -145,-53 -62,-18 -176,-84 -176,-84 99,72 200,118 257,141 -15,-5 -34,-11 -59,-18 -85,-24 -188,-109 -188,-109 47,51 124,96 218,129 94,33 107,68 107,68 -24,-33 -68,-17 -152,-32 -84,-14 -165,-100 -165,-100 0,0 28,32 88,76 32,23 90,46 138,62 -26,-8 -56,-16 -85,-23 -81,-20 -176,-112 -176,-112 36,51 115,102 203,133 89,31 147,93 147,93 -86,-60 -123,-64 -123,-64 118,77 138,121 138,121 -17,-25 -43,-17 -63,-27 -19,-10 -44,-37 -44,-37 22,46 56,57 72,71 16,15 19,68 19,68 0,0 -13,-44 -58,-70 -45,-26 -48,-79 -73,-115 -24,-36 -47,-19 -47,-19 0,0 29,-3 44,26 14,28 27,78 64,109 37,31 63,86 63,86 -26,-47 -40,-45 -78,-72 -37,-28 -61,-111 -61,-111 19,118 82,129 106,159 23,30 24,60 24,60 -32,-46 -61,-56 -61,-56 45,30 61,88 61,88 -4,-14 -15,-30 -52,-51 -37,-21 -59,-80 -59,-80 18,70 53,84 77,109 24,24 10,89 10,89 0,0 -14,-33 -21,-71 -4,-25 -26,-43 -39,-52 10,8 23,23 29,51 -5,5 -13,16 -22,29 -11,-20 -23,-44 -37,-71 -61,-118 -77,-281 -77,-281 0,0 0,108 46,224 19,48 43,93 61,138 -31,45 -72,120 -73,194 -13,16 -26,34 -39,53 -7,-12 -15,-24 -25,-36 -6,-7 -12,-14 -17,-22 79,-131 15,-140 15,-140 0,0 56,14 -20,134 -18,-25 -33,-48 -45,-70 16,-65 36,-112 36,-112 -16,29 -29,66 -39,107 -44,-83 -45,-142 -45,-142 -14,67 11,114 41,158 -23,105 -30,232 -33,319 -14,10 -30,19 -45,26 -1,0 -1,0 -2,1 5,-46 23,-84 23,-84 -18,30 -26,59 -29,87 -16,8 -32,19 -47,34 -4,-13 -6,-21 -6,-21 1,8 2,16 3,23 -14,14 -28,30 -39,49 -31,-112 -8,-276 -8,-276 -28,127 -13,229 1,285 -2,4 -4,7 -5,11 -30,-30 -70,-13 -70,-13 30,0 50,9 63,25 -13,27 -22,58 -25,90 -2,18 -6,37 -11,53 -9,-28 -25,-46 -25,-46 -73,-90 -70,-163 -66,-188 -20,100 42,169 72,214 8,13 12,25 13,37 -17,43 -42,78 -56,96 6,-11 14,-28 22,-57 16,-60 -25,-86 -25,-86 0,0 26,22 19,73 -7,51 -79,116 -79,116 0,0 61,-80 12,-197 -45,-108 -23,-188 -19,-200 -28,82 -10,142 10,206 4,12 8,23 11,36 23,79 -38,172 -38,172 32,-99 14,-176 14,-176 10,112 -25,200 -25,200l9 35c0,0 49,-11 69,-21 17,15 56,43 107,42 -20,19 -36,27 -36,27 0,0 18,-8 39,-27 45,-1 100,-26 156,-103 0,0 -70,91 -152,99 23,-22 48,-56 60,-107 4,-14 5,-26 6,-35 84,-17 225,-66 388,-199 85,-70 146,-127 189,-173 8,8 13,14 13,14 0,0 -4,-7 -11,-16 88,-93 102,-136 102,-136 0,0 -30,56 -104,134 -19,-21 -57,-50 -108,-15 -47,32 -59,61 -95,77 56,-54 93,-104 93,-104 -43,47 -79,83 -110,110 -17,5 -38,8 -67,9 24,-28 48,-57 71,-86 8,-5 18,-11 29,-16 68,-35 101,-63 101,-63 -39,29 -78,43 -107,49 13,-17 26,-33 38,-49 14,-4 37,-11 73,-27 52,-23 95,-55 119,-75 27,24 43,56 43,56 0,0 -15,-33 -37,-61 10,-8 15,-13 15,-13 -5,4 -10,9 -15,13 -3,-3 -5,-6 -8,-9 52,-43 83,-91 102,-134 174,-69 215,-124 215,-124 0,0 -69,63 -208,107 14,-36 19,-67 22,-88 -4,20 -12,51 -36,92 -4,1 -9,3 -14,4 -81,23 -125,48 -149,68 71,-78 153,-139 199,-171 0,2 0,5 0,7 0,-2 0,-5 1,-7 22,-15 36,-24 36,-24 -12,7 -24,15 -36,22 1,-11 0,-18 0,-18 0,0 0,7 -1,19 -104,67 -202,160 -226,183 18,-19 82,-92 199,-306 115,-212 217,-271 249,-284 -92,37 -168,128 -186,150 245,-301 230,-857 230,-857 0,0 -32,405 -103,598l0 0zm-512 23c-3,-2 -5,-3 -7,-4 4,2 7,4 7,4l0 0zm-51 478c9,20 16,40 21,60 -10,-1 -23,3 -23,3 0,0 39,4 11,37 -9,10 -35,36 -66,73 4,-52 20,-112 57,-173l0 0zm-221 214c2,-31 7,-60 13,-87 15,20 30,41 44,62 -2,3 -5,7 -7,10 -52,75 -35,139 -12,185 -9,14 -25,30 -43,45 -1,-71 0,-158 5,-215l0 0zm46 152c-2,3 -3,7 -4,10 -1,2 -2,4 -3,6 -22,-38 -35,-95 17,-177 2,-3 4,-5 6,-8 11,19 21,40 26,64 1,4 2,9 2,13 -16,28 -32,58 -44,90 1,-2 1,-5 1,-6 0,1 0,4 -1,8l0 0zm-5 14c0,1 -1,2 -1,3 0,0 0,0 0,0 0,-1 1,-2 1,-3l0 0zm-46 56c23,-20 36,-37 44,-51 0,0 0,1 0,1 -12,41 -18,84 -13,128 -16,20 -29,37 -29,37 0,0 -2,-50 -2,-115l0 0zm54 -32c7,11 13,21 18,29 -12,32 -25,57 -31,67 0,-16 1,-51 13,-96l0 0zm-95 61c8,-6 16,-11 23,-16 -2,45 -2,78 -4,92 -6,50 -35,83 -35,83 5,-26 2,-48 -7,-110 -2,-12 -2,-23 -2,-35 8,-4 16,-9 25,-14l0 0zm-32 19c-2,31 2,60 6,86 7,52 -33,116 -33,116 0,0 2,-4 -1,-70 -1,-37 -9,-74 -15,-99 12,-11 26,-22 43,-33l0 0zm-91 102c0,-1 1,-3 2,-4 2,7 4,13 5,18 -2,-5 -4,-10 -7,-14l0 0zm15 4c-3,-6 -5,-13 -7,-20 10,-19 22,-35 37,-50 13,109 2,159 -7,180 4,-16 4,-47 -23,-110l0 0zm-71 162c2,30 -11,53 -11,53l-24 25c0,0 12,-16 35,-78l0 0zm81 153c-11,36 -30,61 -47,79 -32,2 -66,-10 -98,-44 54,-29 103,-60 146,-90 6,10 8,27 -1,55l0 0zm-35 -155c-15,23 -37,38 -37,38 3,-20 1,-38 -3,-53 5,-17 12,-37 19,-60 9,-30 17,-54 25,-74 28,49 6,133 -4,149l0 0zm403 -196c33,-14 67,-35 94,-68 57,-70 111,-40 136,-18 -95,99 -261,231 -527,328 23,-19 44,-38 60,-54 21,-21 54,-56 93,-98 51,-18 101,-53 144,-90l0 0zm-23 8c-50,39 -82,53 -100,57 13,-13 25,-28 38,-43 17,-2 39,-6 62,-14l0 0zm-151 -164c9,-30 22,-65 43,-102 1,43 -9,88 -22,125 -6,-6 -13,-13 -21,-23l0 0zm134 -96c-6,-7 -11,-14 -15,-21 3,14 6,25 8,33 -24,37 -49,69 -67,90 18,-39 29,-90 5,-145 10,-15 21,-30 34,-44 2,22 8,45 20,66 -4,-22 -7,-50 -7,-82 3,-4 6,-7 9,-10 45,-49 68,-79 77,-98 4,33 2,68 -10,104 -13,37 -33,74 -54,107l0 0zm164 37c-8,0 -14,-1 -19,-1 6,-9 12,-18 18,-27 44,-67 87,-70 120,-53 -45,41 -87,66 -119,81l0 0zm20 -2c10,-5 19,-9 30,-15 33,-16 61,-34 85,-54 3,3 6,5 9,8 -52,42 -94,57 -124,61l0 0zm196 -199c3,-1 6,-2 10,-4 -16,24 -36,51 -63,80 -11,13 -23,24 -34,35 -15,-13 -32,-21 -50,-16 -56,16 -74,57 -74,57 0,0 12,-78 211,-152l0 0zm-287 -48c0,0 -15,-32 -49,-100 6,-10 14,-20 22,-30 1,4 2,9 2,14 6,60 25,116 25,116l0 0zm-95 -1730c-5,-4 -8,-5 -8,-5 0,0 3,2 8,5l0 0zm-336 79c0,0 3,0 8,-1 -5,0 -8,1 -8,1l0 0z"/>
    <g>
     <path class="fil0 str0" d="M22050 9563c0,0 -31,18 -72,7 0,0 44,25 78,6l-6 -13 0 0z"/>
     <path class="fil0 str0" d="M22027 9508c0,0 22,-41 22,-106 0,0 8,48 -17,115l-5 -9 0 0z"/>
     <path class="fil0 str0" d="M22021 9507c0,0 8,-11 16,-55 0,0 1,35 -8,61l-8 -6 0 0z"/>
     <path class="fil0 str0" d="M22080 9601c0,0 26,-37 42,-141 0,0 2,74 -24,169l-3 5 -15 -33 0 0z"/>
     <path class="fil0 str0" d="M22161 9792c0,0 -63,16 -123,-21 0,0 89,57 137,55l-14 -34 0 0z"/>
     <path class="fil0 str0" d="M22153 9766c0,0 -40,31 -121,-16 0,0 55,49 118,30l3 -14 0 0z"/>
     <path class="fil0 str0" d="M22122 9687c0,0 -18,22 -76,11 0,0 42,3 67,-16l9 5 0 0z"/>
     <path class="fil0 str0" d="M22204 9902c0,0 50,-66 73,-160 0,0 -30,88 -77,135l4 25 0 0z"/>
     <path class="fil0 str0" d="M22278 10163c0,0 78,-91 109,-267 0,0 -20,100 -73,165 -52,65 -52,65 -52,65l16 37 0 0z"/>
     <path class="fil0 str0" d="M22276 10224c0,0 -17,-21 -67,-38 -51,-17 -101,-26 -101,-26 0,0 130,48 177,109l-9 -45 0 0z"/>
     <path class="fil0 str0" d="M22284 10568c0,0 -11,-66 -74,-100 0,0 58,69 64,132l10 -32 0 0z"/>
     <path class="fil0 str0" d="M22296 10411c0,0 -37,-67 -85,-95 0,0 58,59 75,119l10 -24 0 0z"/>
    </g>
    <path class="fil0 str0" d="M20787 11872c0,0 586,128 1071,-477 486,-605 601,-1090 130,-1945 0,0 1024,1357 -627,2412 0,0 -693,355 -574,10l0 0z"/>
   </g>
   <g>
    <path class="fil0 str0" d="M7589 10694c7,-6 13,-8 13,-8 0,0 -5,3 -13,8l0 0zm322 -576c18,-19 23,-22 23,-22 0,0 -9,9 -23,22l0 0zm210 1165c-1,-3 -1,-6 -2,-9 0,0 1,3 2,9l0 0zm-1154 -891c-4,-1 -7,-3 -11,-4 1,0 4,1 11,4l0 0zm1195 887c0,-1 -1,-2 -1,-2 0,0 0,1 1,2l0 0zm-1136 -995c71,194 247,382 247,382 0,0 -54,-65 -139,-202 -86,-136 -99,-233 -99,-233 0,0 14,40 39,102 26,62 111,192 111,192 0,0 -8,-34 -76,-145 -67,-111 -94,-279 -94,-279 0,0 25,128 89,249 59,112 156,232 168,248 -5,-7 -29,-43 -126,-223 -118,-216 -115,-438 -115,-438 5,239 195,535 195,535 0,0 -39,-61 -95,-213 -56,-153 -72,-361 -72,-361 0,0 2,24 38,189 36,164 107,285 107,285 -96,-243 -141,-544 -141,-544 0,0 56,287 131,476 74,188 119,214 119,214 -105,-122 -147,-385 -183,-569 -36,-184 -133,-288 -133,-288 0,0 95,87 134,263 39,177 151,368 151,368 -184,-376 -147,-541 -147,-541 22,338 160,528 160,528 -214,-392 -128,-836 -128,-836 0,0 -4,32 0,161 4,95 52,231 77,296 -41,-117 -55,-306 -39,-424 18,-132 -57,-219 -57,-219 0,0 80,70 65,222 -14,153 64,440 64,440 -51,-258 -1,-557 -1,-557 -16,180 84,412 84,412 -90,-255 -41,-398 -41,-398 -19,167 55,378 55,378 -96,-372 24,-492 24,-492 -65,136 -18,302 -18,302 -6,-248 89,-331 89,-331 -80,139 -69,322 -69,322 6,-191 79,-283 79,-283 -42,91 -19,198 -19,198 -5,-189 133,-300 168,-325 -13,10 -45,40 -99,119 -76,108 -39,284 -39,284 -14,-257 145,-365 145,-365 -94,105 -92,216 -92,216 22,-105 87,-165 87,-165 -54,61 -41,149 -41,149 19,-113 56,-138 56,-138 -29,33 -26,114 -26,114 18,-83 93,-157 93,-157 -52,67 -48,133 -48,133 41,-103 139,-150 139,-150 0,0 -30,17 -73,64 -42,47 -38,110 -38,110 0,0 0,-8 43,-74 43,-66 102,-78 102,-78 -67,36 -80,105 -80,105 86,-89 174,-90 199,-89 -11,1 -36,6 -83,33 -70,41 -98,71 -98,71 0,0 68,-5 110,-46 42,-41 116,-39 116,-39 0,0 -70,14 -118,65 -47,51 -153,90 -153,90 0,0 12,10 59,-1 48,-10 111,-73 111,-73 -45,88 -91,108 -91,108 69,-12 149,-153 149,-153 0,0 0,0 -44,83 -44,84 -100,130 -100,130 82,-43 140,-155 140,-155 -45,130 -167,201 -167,201 66,-15 156,-121 156,-121 -98,148 -196,149 -196,149 127,-2 205,-121 205,-121 -93,164 -240,164 -240,164 166,16 294,-169 294,-169 -90,172 -318,226 -318,226 87,9 257,-119 257,-119 -156,143 -300,161 -300,161 0,0 7,23 108,-12 101,-34 181,-130 181,-130 -76,124 -268,241 -268,241 58,-17 182,-127 248,-198 67,-71 135,-52 135,-52 0,0 -68,-11 -130,68 -62,78 -247,212 -247,212 0,0 111,-41 207,-138 96,-97 185,-108 185,-108 0,0 -100,39 -167,114 -66,74 -226,176 -226,176 0,0 80,0 235,-134 155,-135 195,-113 195,-113 0,0 -39,-2 -98,50 -59,51 -272,233 -272,233 118,-18 343,-253 343,-253 -198,272 -443,305 -443,305 225,20 453,-279 453,-279 -179,285 -462,314 -462,314 231,-8 433,-214 433,-214 -207,237 -443,242 -443,242 199,30 441,-201 441,-201 -227,245 -450,223 -450,223 114,72 418,-155 418,-155 -282,255 -426,176 -426,176 0,0 107,63 252,-35 144,-98 215,-69 215,-69 0,0 -43,-16 -163,68 -120,85 -316,74 -316,74 279,39 404,-90 413,-100 -90,103 -257,130 -304,121 -34,-7 -78,8 -98,17 15,-4 49,-5 119,15 110,31 185,-63 185,-63 0,0 -5,12 -47,46 -42,34 -106,40 -165,25 -48,-12 -114,29 -138,45 36,-20 124,-24 173,-18 54,6 113,-29 113,-29 -56,54 -184,52 -224,63 -39,10 -87,32 -87,32 0,0 63,-19 177,-30 85,-9 171,-80 210,-118 -9,11 -23,25 -43,46 -56,60 -176,90 -222,96 -33,3 -75,27 -95,39 27,-15 66,-24 123,-28 65,-5 186,-92 186,-92 -67,69 -206,111 -259,127 -52,15 -100,56 -100,56 28,-21 83,-35 145,-53 62,-18 176,-84 176,-84 -99,72 -200,118 -258,141 16,-5 35,-11 60,-18 84,-25 187,-109 187,-109 -47,51 -123,96 -217,129 -95,33 -107,67 -107,67 24,-32 68,-16 152,-31 83,-14 164,-100 164,-100 0,0 -27,32 -87,76 -32,23 -90,46 -139,62 27,-8 56,-16 86,-23 81,-20 175,-112 175,-112 -35,51 -115,102 -203,133 -88,31 -146,93 -146,93 86,-61 123,-64 123,-64 -118,77 -138,121 -138,121 17,-25 42,-17 62,-27 20,-10 45,-37 45,-37 -23,45 -57,57 -73,71 -16,15 -18,68 -18,68 0,0 13,-44 58,-70 44,-26 48,-79 73,-115 24,-36 47,-19 47,-19 0,0 -30,-3 -44,26 -15,28 -27,78 -64,109 -37,31 -63,86 -63,86 26,-47 40,-45 78,-72 37,-28 61,-111 61,-111 -20,118 -83,129 -106,159 -23,30 -24,60 -24,60 32,-46 60,-56 60,-56 -44,30 -60,88 -60,88 4,-14 15,-30 52,-51 37,-21 59,-80 59,-80 -18,70 -54,84 -77,108 -24,25 -10,89 -10,89 0,0 13,-32 20,-70 5,-25 26,-43 40,-52 -10,8 -23,23 -29,51 5,5 12,16 22,29 11,-20 23,-44 37,-71 61,-118 77,-281 77,-281 0,0 0,108 -47,224 -19,48 -42,93 -60,138 30,45 71,120 73,194 13,16 26,34 39,53 6,-12 14,-24 24,-36 6,-7 12,-14 18,-22 -79,-131 -15,-140 -15,-140 0,0 -56,14 20,134 18,-25 33,-48 45,-70 -16,-65 -37,-112 -37,-112 17,29 30,66 40,107 43,-83 45,-142 45,-142 13,67 -11,114 -42,158 24,105 31,232 34,319 14,10 29,19 45,26 1,0 1,0 1,1 -4,-46 -22,-84 -22,-84 17,30 26,59 29,87 16,8 32,19 47,34 3,-13 6,-21 6,-21 -1,8 -3,15 -3,23 14,14 27,30 39,49 30,-112 7,-276 7,-276 28,127 13,229 -1,285 2,4 4,7 6,11 30,-30 70,-13 70,-13 -30,0 -51,9 -64,25 13,27 23,58 26,90 1,18 5,36 11,53 9,-28 24,-46 24,-46 73,-90 70,-163 67,-188 20,100 -42,169 -72,214 -8,12 -12,25 -14,36 17,44 42,79 57,97 -7,-11 -15,-28 -23,-57 -15,-60 25,-86 25,-86 0,0 -26,22 -18,73 7,51 79,116 79,116 0,0 -61,-80 -12,-197 45,-108 22,-188 19,-200 28,82 9,142 -11,206 -3,12 -7,23 -11,36 -22,79 39,172 39,172 -32,-99 -14,-176 -14,-176 -10,111 24,200 24,200l-9 35c0,0 -49,-11 -69,-21 -17,15 -55,43 -106,42 19,19 35,27 35,27 0,0 -17,-8 -38,-27 -46,-1 -100,-26 -156,-103 0,0 69,91 151,99 -22,-22 -48,-56 -60,-107 -3,-14 -5,-26 -5,-35 -84,-17 -226,-66 -388,-199 -85,-70 -146,-127 -189,-173 -9,8 -14,14 -14,14 0,0 5,-7 12,-16 -88,-93 -102,-136 -102,-136 0,0 30,56 103,134 19,-21 58,-51 109,-15 47,32 58,61 95,77 -56,-54 -93,-104 -93,-104 42,47 79,83 110,110 17,5 38,8 67,9 -24,-28 -48,-57 -71,-86 -9,-5 -18,-11 -30,-16 -68,-35 -100,-63 -100,-63 38,29 78,43 107,49 -14,-17 -26,-33 -38,-49 -15,-4 -38,-11 -74,-27 -51,-23 -94,-55 -118,-75 -27,24 -43,56 -43,56 0,0 14,-33 37,-61 -10,-8 -15,-13 -15,-13 5,4 10,9 15,13 2,-3 5,-6 7,-9 -51,-43 -82,-91 -101,-134 -175,-69 -216,-124 -216,-124 0,0 69,63 209,107 -14,-36 -20,-67 -22,-88 3,20 12,51 35,92 5,1 10,3 14,4 82,23 126,48 150,68 -71,-78 -153,-139 -200,-171 1,2 1,5 1,7 0,-2 -1,-5 -1,-7 -22,-15 -36,-24 -36,-24 12,7 24,15 36,22 -1,-11 0,-18 0,-18 0,0 -1,7 0,19 104,67 203,160 227,183 -18,-19 -83,-93 -199,-306 -116,-212 -218,-271 -249,-284 92,37 168,128 186,150 -245,-301 -231,-857 -231,-857 0,0 33,405 104,598l0 0zm512 23c2,-2 4,-3 7,-4 -5,2 -7,4 -7,4l0 0zm50 478c-8,20 -15,40 -20,60 10,-1 22,3 22,3 0,0 -39,4 -11,37 9,10 36,36 67,73 -4,-52 -20,-112 -58,-173l0 0zm222 214c-3,-31 -8,-60 -14,-87 -14,20 -30,41 -43,62 2,3 4,7 7,10 51,75 35,139 12,185 9,14 24,30 43,45 0,-71 0,-158 -5,-215l0 0zm-46 152c1,3 2,7 3,10 1,2 2,4 4,6 22,-38 34,-95 -18,-177 -1,-3 -3,-5 -5,-8 -11,19 -21,40 -26,64 -1,4 -2,8 -3,13 17,28 32,58 44,90 0,-3 0,-5 0,-7 0,2 0,5 1,9l0 0zm5 14c0,1 0,2 1,3 0,0 0,0 0,0 -1,-1 -1,-2 -1,-3l0 0zm46 56c-24,-20 -37,-37 -44,-51 0,0 0,1 0,1 12,41 18,84 12,128 16,20 30,37 30,37 0,0 2,-50 2,-115l0 0zm-54 -32c-7,11 -13,21 -18,29 12,32 25,57 30,67 1,-16 -1,-51 -12,-96l0 0zm95 60c-8,-5 -16,-10 -23,-15 1,45 2,78 4,91 6,51 34,84 34,84 -4,-26 -1,-48 8,-111 2,-11 2,-22 1,-34 -7,-4 -15,-9 -24,-15l0 0zm31 20c2,31 -1,60 -5,86 -8,52 33,116 33,116 0,0 -2,-4 0,-70 2,-37 9,-74 15,-99 -12,-11 -26,-22 -43,-33l0 0zm92 102c-1,-1 -2,-3 -2,-4 -2,7 -4,13 -6,18 3,-5 5,-10 8,-14l0 0zm-15 4c2,-7 5,-13 7,-20 -10,-19 -22,-35 -37,-50 -14,109 -2,159 7,180 -4,-16 -4,-48 23,-110l0 0zm71 162c-3,29 10,53 10,53l24 25c0,0 -12,-16 -34,-78l0 0zm-81 153c11,35 30,61 47,79 32,2 66,-10 98,-44 -55,-29 -104,-60 -147,-90 -5,10 -7,27 2,55l0 0zm35 -155c15,23 37,38 37,38 -4,-20 -1,-38 3,-54 -6,-16 -12,-36 -19,-59 -9,-30 -17,-54 -25,-75 -28,50 -6,134 4,150l0 0zm-403 -196c-33,-14 -67,-35 -94,-69 -58,-69 -111,-39 -136,-17 95,98 260,231 527,328 -24,-19 -44,-38 -61,-55 -21,-20 -54,-55 -92,-98 -51,-17 -101,-52 -144,-89l0 0zm23 8c49,39 81,53 99,57 -12,-13 -24,-28 -37,-43 -18,-2 -39,-6 -62,-14l0 0zm150 -164c-8,-30 -21,-65 -42,-102 -2,43 9,88 21,125 7,-6 14,-13 21,-23l0 0zm-133 -96c5,-7 10,-14 15,-21 -3,14 -6,25 -8,33 24,37 49,69 67,90 -18,-39 -30,-90 -6,-145 -9,-15 -20,-30 -33,-45 -2,23 -8,46 -20,67 4,-22 7,-50 6,-83 -2,-3 -5,-6 -8,-9 -46,-49 -68,-79 -77,-99 -5,34 -3,69 10,105 13,37 33,74 54,107l0 0zm-164 37c8,0 14,-1 19,-1 -6,-9 -12,-18 -18,-27 -45,-67 -87,-70 -120,-53 45,41 86,66 119,81l0 0zm-21 -2c-9,-5 -19,-10 -29,-15 -33,-16 -61,-34 -85,-54 -3,3 -6,5 -9,8 51,42 93,57 123,61l0 0zm-195 -199c-3,-1 -7,-2 -10,-4 16,24 36,51 63,80 11,13 23,24 34,35 15,-13 32,-21 49,-16 57,16 75,57 75,57 0,0 -12,-78 -211,-152l0 0zm287 -48c0,0 15,-33 49,-100 -7,-10 -14,-20 -22,-31 -1,5 -2,10 -2,15 -6,60 -25,116 -25,116l0 0zm95 -1730c5,-4 7,-5 7,-5 0,0 -2,2 -7,5l0 0zm335 79c0,0 -2,0 -7,-1 5,0 7,1 7,1l0 0z"/>
    <g>
     <path class="fil0 str0" d="M7635 9555c0,0 30,18 71,7 0,0 -44,25 -77,6l6 -13 0 0z"/>
     <path class="fil0 str0" d="M7658 9499c0,0 -23,-40 -22,-105 0,0 -9,48 16,115l6 -10 0 0z"/>
     <path class="fil0 str0" d="M7664 9499c0,0 -8,-11 -16,-55 0,0 -2,34 7,61l9 -6 0 0z"/>
     <path class="fil0 str0" d="M7605 9593c0,0 -26,-37 -43,-141 0,0 -1,74 25,169l3 5 15 -33 0 0z"/>
     <path class="fil0 str0" d="M7524 9784c0,0 63,16 122,-21 0,0 -89,57 -136,55l14 -34 0 0z"/>
     <path class="fil0 str0" d="M7531 9758c0,0 41,31 122,-16 0,0 -55,48 -119,30l-3 -14 0 0z"/>
     <path class="fil0 str0" d="M7563 9679c0,0 18,22 76,11 0,0 -42,3 -67,-16l-9 5 0 0z"/>
     <path class="fil0 str0" d="M7480 9894c0,0 -50,-66 -73,-160 0,0 30,88 78,135l-5 25 0 0z"/>
     <path class="fil0 str0" d="M7406 10155c0,0 -77,-91 -108,-267 0,0 20,99 73,165 52,65 52,65 52,65l-17 37 0 0z"/>
     <path class="fil0 str0" d="M7409 10216c0,0 16,-21 67,-38 51,-17 101,-26 101,-26 0,0 -130,48 -177,109l9 -45 0 0z"/>
     <path class="fil0 str0" d="M7401 10560c0,0 10,-66 74,-100 0,0 -58,69 -64,132l-10 -32 0 0z"/>
     <path class="fil0 str0" d="M7388 10403c0,0 37,-67 86,-95 0,0 -59,58 -75,119l-11 -24 0 0z"/>
    </g>
    <path class="fil0 str0" d="M8898 11864c0,0 -586,128 -1072,-477 -485,-605 -600,-1090 -130,-1945 0,0 -1023,1357 628,2411 0,0 693,356 574,11l0 0z"/>
   </g>
   <path class="fil1 str2" d="M9832 16513c23,0 46,0 70,0 130,0 286,-2 397,-2 111,0 179,2 246,7 68,6 135,14 209,30 73,17 153,42 220,79 66,36 120,83 154,130 35,47 52,94 56,135 5,41 -1,77 -20,112 -19,36 -49,73 -86,98 -38,25 -82,39 -135,48 -52,8 -113,11 -194,10 -82,-2 -184,-8 -284,-28 -100,-20 -199,-54 -283,-93 -84,-39 -154,-84 -232,-140 -79,-55 -167,-123 -231,-177 -64,-55 -103,-96 -137,-127 -35,-31 -64,-51 -97,-68 -33,-17 -69,-32 -105,-33 -35,-1 -69,13 -89,30 -20,17 -26,37 -15,67 10,30 37,68 113,120 76,52 202,117 403,197 201,81 477,176 673,240 196,64 311,97 441,129 131,31 276,62 421,97 146,34 291,71 419,102 127,31 236,56 373,87 136,30 300,67 494,102 193,36 415,71 584,96 169,25 285,40 437,56 152,15 339,30 529,41 191,11 384,20 511,24 127,5 187,6 248,7m-6633 -1784c78,-181 155,-362 195,-458 39,-97 40,-109 17,-129 -23,-20 -70,-48 -142,-80 -72,-32 -170,-69 -254,-94 -84,-24 -154,-36 -218,-37 -64,-2 -121,7 -163,21 -41,13 -68,32 -85,52 -18,21 -26,43 -25,73 1,29 12,66 33,114 22,47 56,105 98,160 42,56 93,109 160,169 66,60 149,127 334,215 185,88 473,197 639,261 64,24 110,42 148,56m-12 213c-18,54 -128,285 -154,354 -25,68 -51,139 -114,320 -63,181 -162,471 -217,633 -55,162 -65,196 -74,225 -9,28 -16,50 -20,70 -3,20 -3,38 -3,60 -1,23 -2,51 3,81 5,30 17,63 36,94 19,32 46,63 92,97 47,34 112,71 209,117 96,46 223,101 366,160 144,59 304,122 478,183 174,62 362,122 594,189 233,67 511,142 775,207 264,66 514,122 741,168 228,47 434,83 604,110 171,28 306,46 442,66 136,19 272,39 421,52 149,13 310,20 516,30 207,9 458,22 667,28 210,6 378,5 546,4m-6366 -3642c53,-132 106,-264 153,-386 48,-122 89,-233 111,-302 22,-69 25,-95 21,-121 -4,-25 -16,-50 -34,-72 -18,-21 -42,-39 -135,-80 -93,-41 -256,-106 -395,-151 -139,-46 -255,-72 -345,-89 -90,-17 -156,-25 -218,-22 -62,3 -121,17 -174,38 -53,21 -100,51 -133,89 -32,38 -52,85 -61,146 -10,61 -10,137 3,220 12,84 37,176 81,257 44,81 106,151 200,232 94,81 220,172 333,241 113,70 212,118 321,162 109,43 227,82 314,109 87,27 144,41 186,52 58,14 101,37 157,53 25,7 53,14 82,21m-1645 -1451c-52,122 -105,243 -154,358 -49,115 -95,225 -152,368 -57,144 -127,320 -169,434 -43,114 -59,164 -67,215 -9,51 -12,103 -8,147 3,43 12,79 26,107 13,27 32,47 63,89 31,41 75,104 138,176 63,71 146,151 260,235 114,83 259,171 386,241 126,70 234,122 342,171 107,50 214,95 295,129 82,34 138,56 194,77m1525 -1237c47,-7 94,-14 152,-16 58,-3 127,-1 221,8 94,8 214,23 299,45 86,21 139,49 168,74 30,26 37,50 34,71 -3,20 -15,37 -48,48 -32,11 -84,17 -147,17 -62,1 -136,-5 -205,-14 -68,-10 -131,-24 -189,-47 -59,-24 -114,-57 -153,-81 -38,-25 -59,-40 -100,-74 -42,-34 -105,-88 -160,-135 -55,-47 -103,-89 -152,-125 -48,-36 -97,-66 -152,-94 -56,-29 -117,-56 -178,-70 -61,-14 -121,-15 -171,-12 -50,2 -91,9 -125,21 -35,11 -63,26 -83,45 -20,19 -31,41 -40,73 -9,32 -16,74 -17,115 0,42 6,84 24,126 17,42 47,84 74,113 27,29 52,45 102,77 49,32 123,81 207,130 84,50 179,100 260,139 82,38 151,65 299,112 148,47 376,114 616,184 240,70 493,142 727,201 234,58 451,101 680,148 230,47 472,96 713,139 240,42 477,78 667,102 190,24 332,37 483,48 151,11 311,22 478,31 166,10 339,19 437,22 99,4 121,1 144,-1m5090 -1610c-22,0 -46,0 -70,0 -130,0 -285,-2 -397,-2 -111,0 -179,2 -246,7 -67,6 -135,14 -208,30 -74,17 -154,42 -220,79 -67,36 -120,83 -155,130 -35,47 -51,94 -56,135 -5,41 2,77 20,112 19,36 49,73 87,98 37,25 81,39 134,48 52,8 113,11 195,10 81,-2 183,-8 283,-28 101,-20 199,-54 283,-93 84,-39 154,-84 233,-140 79,-55 167,-123 230,-177 64,-55 103,-96 138,-127 34,-31 64,-51 97,-68 32,-17 69,-32 104,-33 35,-1 69,13 89,30 20,17 26,37 16,67 -11,30 -37,68 -114,120 -76,52 -202,117 -403,197 -201,81 -477,176 -673,240 -195,64 -311,97 -441,129 -130,31 -275,62 -421,97 -145,34 -291,71 -418,102 -128,31 -237,56 -373,87 -137,30 -301,67 -494,102 -194,36 -416,71 -585,96 -169,25 -285,40 -437,56 -152,15 -339,30 -529,41 -190,11 -384,20 -511,24 -126,5 -187,6 -248,7m6633 -1784c-77,-181 -155,-362 -194,-458 -40,-97 -40,-109 -17,-129 23,-20 69,-48 141,-80 73,-32 170,-69 254,-94 84,-24 155,-36 218,-37 64,-2 121,7 163,21 42,13 68,32 86,52 17,21 25,43 24,73 -1,29 -11,66 -33,114 -22,47 -55,105 -98,160 -42,56 -93,109 -159,169 -67,60 -149,127 -334,215 -185,88 -473,197 -639,261 -65,24 -111,42 -148,56m11 213c19,54 128,285 154,354 26,68 52,139 114,320 63,181 162,471 217,633 55,162 66,196 75,225 9,28 16,50 19,70 3,20 3,38 3,60 1,23 3,51 -3,81 -5,30 -17,63 -36,94 -19,32 -46,63 -92,97 -46,34 -112,71 -208,117 -97,46 -223,101 -367,160 -143,59 -304,122 -478,183 -174,62 -361,122 -594,189 -233,67 -511,142 -775,207 -264,66 -513,122 -741,168 -228,47 -433,83 -604,110 -171,28 -306,46 -442,66 -136,19 -272,39 -421,52 -149,13 -310,20 -516,30 -206,9 -457,22 -667,28 -209,6 -378,5 -546,4m6366 -3642c-53,-132 -106,-264 -153,-386 -47,-122 -89,-233 -111,-302 -22,-69 -25,-95 -21,-121 5,-25 17,-50 34,-72 18,-21 42,-39 135,-80 93,-41 256,-106 395,-151 140,-46 255,-72 345,-89 91,-17 156,-25 218,-22 62,3 121,17 174,38 53,21 100,51 133,89 33,38 52,85 62,146 9,61 9,137 -3,220 -13,84 -38,176 -82,257 -43,81 -106,151 -200,232 -94,81 -219,172 -332,241 -113,70 -213,118 -322,162 -109,43 -227,82 -314,109 -87,27 -143,41 -186,52 -58,14 -101,37 -157,53 -25,7 -53,14 -81,21m1644 -1451c53,122 106,243 155,358 49,115 94,225 151,368 58,144 127,320 170,434 42,114 58,164 67,215 9,51 11,103 8,147 -4,43 -13,79 -26,107 -14,27 -33,47 -64,89 -31,41 -74,104 -138,176 -63,71 -146,151 -260,235 -114,83 -259,171 -385,241 -127,70 -235,122 -342,171 -108,50 -214,95 -296,129 -81,34 -137,56 -194,77m-1525 -1237c-47,-7 -94,-14 -152,-16 -57,-3 -126,-1 -221,8 -94,8 -213,23 -299,45 -86,21 -138,49 -168,74 -29,26 -36,50 -34,71 3,20 16,37 48,48 32,11 84,17 147,17 63,1 137,-5 205,-14 68,-10 131,-24 190,-47 59,-24 114,-57 152,-81 38,-25 59,-40 101,-74 42,-34 104,-88 159,-135 55,-47 103,-89 152,-125 48,-36 97,-66 153,-94 55,-29 117,-56 178,-70 60,-14 120,-15 171,-12 50,2 90,9 125,21 34,11 62,26 82,45 20,19 31,41 41,73 9,32 15,74 16,115 0,42 -5,84 -23,126 -18,42 -48,84 -75,113 -27,29 -52,45 -101,77 -50,32 -124,81 -208,130 -84,50 -178,100 -260,139 -82,38 -151,65 -299,112 -148,47 -376,114 -616,184 -240,70 -493,142 -727,201 -234,58 -450,101 -680,148 -229,47 -472,96 -712,139 -240,42 -478,78 -668,102 -190,24 -332,37 -483,48 -151,11 -311,22 -477,31 -167,10 -340,19 -438,22 -98,4 -121,1 -144,-1"/>
   <polygon class="fil0 str3" points="9694,17559 9983,17872 10370,17693 10161,18064 10451,18377 10033,18293 9826,18666 9776,18242 9358,18160 9745,17982 "/>
   <polygon class="fil0 str3" points="20072,17594 19782,17908 19396,17728 19604,18100 19314,18412 19732,18329 19940,18701 19989,18278 20408,18196 20020,18018 "/>
   <path class="fil3" d="M13884 19279l0 154 -680 0c7,-59 29,-114 66,-166 37,-52 110,-121 218,-208 87,-69 141,-117 161,-141 26,-35 40,-68 40,-102 0,-37 -12,-65 -35,-85 -23,-20 -55,-30 -96,-30 -41,0 -73,10 -97,31 -23,21 -37,56 -41,104l-194 -16c12,-92 48,-157 109,-197 61,-40 137,-60 228,-60 100,0 178,23 235,69 58,47 86,104 86,173 0,39 -8,76 -24,111 -17,35 -43,72 -78,111 -24,26 -66,62 -128,111 -61,48 -100,79 -116,95 -17,16 -30,32 -40,46l386 0zm459 -716c98,0 175,30 230,90 66,71 99,189 99,353 0,164 -33,282 -99,354 -55,59 -132,89 -230,89 -98,0 -178,-33 -238,-98 -60,-65 -91,-180 -91,-347 0,-163 34,-280 100,-352 55,-59 131,-89 229,-89zm0 138c-23,0 -43,6 -61,19 -19,13 -33,36 -43,69 -13,43 -19,115 -19,217 0,102 5,172 17,210 12,38 27,63 45,76 18,13 38,19 61,19 23,0 44,-7 62,-19 18,-13 32,-36 42,-69 14,-43 20,-115 20,-217 0,-102 -6,-171 -18,-209 -11,-39 -26,-64 -44,-77 -18,-13 -39,-19 -62,-19zm955 732l-194 0 0 -626c-71,57 -154,99 -250,126l0 -151c50,-14 105,-41 164,-81 60,-39 100,-85 123,-138l157 0 0 870zm457 -468c-50,-18 -86,-43 -109,-74 -23,-32 -34,-67 -34,-105 0,-64 26,-118 79,-160 53,-42 128,-63 224,-63 97,0 171,21 224,63 53,42 80,96 80,160 0,41 -12,76 -37,108 -24,31 -59,55 -103,71 56,20 99,48 129,85 29,37 43,80 43,128 0,80 -29,145 -89,195 -59,51 -139,76 -238,76 -92,0 -168,-21 -229,-63 -72,-48 -108,-116 -108,-201 0,-47 13,-90 40,-129 27,-39 70,-69 128,-91zm41 -166c0,33 11,59 33,77 21,19 50,28 86,28 37,0 66,-10 88,-28 22,-19 33,-45 33,-78 0,-31 -10,-56 -32,-75 -22,-19 -51,-28 -86,-28 -38,0 -67,9 -89,28 -22,19 -33,44 -33,76zm-18 370c0,46 13,82 41,108 27,26 61,39 102,39 40,0 73,-13 99,-38 26,-24 39,-60 39,-107 0,-41 -13,-74 -40,-98 -26,-25 -60,-38 -101,-38 -47,0 -82,15 -106,43 -23,28 -34,58 -34,91z"/>
  </g>
 </g>
</svg>
