<svg xmlns="http://www.w3.org/2000/svg" xmlns:xlink="http://www.w3.org/1999/xlink" xml:space="preserve" version="1.1" style="shape-rendering:geometricPrecision; text-rendering:geometricPrecision; image-rendering:optimizeQuality; fill-rule:evenodd; clip-rule:evenodd" viewBox="10193.52 4570.03 9418.24 9546.78">
 <defs>
  <style type="text/css">
   <![CDATA[
    .str1 {stroke:#2B2A29;stroke-width:100}
    .str2 {stroke:#2B2A29;stroke-width:50}
    .str3 {stroke:#2B2A29;stroke-width:20}
    .str0 {stroke:#2B2A29;stroke-width:7.62}
    .fil1 {fill:none}
    .fil3 {fill:#2B2A29}
    .fil0 {fill:#2B2A29}
    .fil2 {fill:#2B2A29;fill-rule:nonzero}
   ]]>
  </style>
 </defs>
 <g id="Warstwa_x0020_1">
  <metadata id="CorelCorpID_0Corel-Layer"/>
  <g id="_588044496">
   <path class="fil0 str0" d="M13907 14113c-551,-1646 -979,-2761 1059,-3813 154,-79 290,-172 425,-234 284,-127 974,-335 975,-335 -79,-212 -1461,-287 -1863,-176 -163,44 -274,42 -429,98 -817,299 -1717,927 -1894,1790 -246,1204 501,2559 1727,2670zm-1868 -1169c-35,-180 -201,-395 -265,-625 -63,-228 -104,-530 -60,-811 74,-471 337,-787 590,-1120 205,-269 634,-543 985,-719 616,-310 1870,-332 2561,-208 607,110 617,209 836,258 -51,-308 -1182,-630 -1509,-697 -629,-129 -1336,-212 -2047,-137 -1129,119 -2262,992 -2265,2134 0,423 73,892 317,1228 121,167 636,654 857,697zm-1548 -1932c25,-563 -28,-639 193,-1099 104,-219 334,-528 552,-701 522,-414 1170,-534 1978,-533 1040,1 1294,9 2268,281 797,223 1565,783 1691,798 -143,-449 -1393,-910 -1861,-1118 -712,-316 -1442,-589 -2377,-596 -519,-4 -883,56 -1319,201 -681,228 -1362,793 -1416,1589 -19,283 62,1070 291,1178zm4975 -5258l170 198c64,66 87,105 77,221 -294,-1 -629,-172 -827,-106 -120,40 -2,-35 -93,63 286,56 700,38 902,248 295,306 -187,660 164,815 6,-7 11,-18 13,-24 228,-446 284,-150 440,-11l172 -149c61,-49 -20,0 72,-45 164,88 250,266 78,407l-414 219c-4,-7 -17,11 -24,17 132,193 341,70 316,339 -498,56 -870,-280 -1154,-500 -91,-70 -747,-561 -874,-587 -66,-13 -32,-3 -77,1l-53 16c91,115 304,182 455,283 399,265 860,714 1266,893 592,259 959,-139 1165,-98 140,28 90,78 323,86 91,3 259,-1 347,-15 70,-11 460,-90 488,-188 4,-14 15,-14 22,-21l-251 -189c-962,-553 -1105,-1387 -1461,-1204 84,151 524,157 466,590 -565,130 -1003,-1205 -1708,-1259zm69 2437c41,73 7,75 136,126 53,21 117,27 174,40 104,24 240,65 344,107 220,87 411,198 610,291 1126,528 2004,1259 1918,2578 -21,330 -131,446 -174,691 243,-45 725,-630 857,-840 120,-191 310,-1270 141,-1465 -46,275 -72,1719 -653,1830 -185,-344 78,-1011 -356,-1569 -133,-170 -327,-351 -463,-511 -322,-380 -151,-597 -336,-678 -266,-116 -332,63 -435,-527 -344,-26 -583,-9 -918,-7 -282,1 -536,-89 -845,-66zm506 5125c-27,-31 -16,-21 -58,-55 -712,-572 -662,-362 -926,-1340 -133,-952 518,-1577 614,-1795 -370,27 -622,383 -795,675 -208,351 -228,634 -231,1142 -2,314 228,878 400,1144 216,335 332,449 868,292 39,-11 46,-17 79,-33l49 -30zm-3546 -6357c879,-292 2185,398 2096,841 -342,56 -516,-62 -802,-136 -706,-183 -2150,-141 -2380,354 195,-17 900,-525 1902,-264 276,71 576,178 889,270l824 303c128,-94 77,-175 218,-208 169,-39 205,33 347,-59 -32,-38 -12,-21 -62,-56 -6,-4 -15,-10 -22,-14l-121 -53c-240,-108 -595,-527 -1304,-882 -246,-123 -671,-279 -969,-288 -365,-10 -852,25 -944,314 124,-23 216,-84 328,-122zm2481 6740c-74,-207 -713,-337 -762,-1427 -45,-1001 503,-1329 614,-1579 -564,63 -942,806 -960,1475 -6,241 81,809 170,1022 118,282 234,537 498,687 86,-8 363,-137 440,-178zm2048 -923c-31,-15 -68,-27 -99,-35 -486,-118 -753,-344 -967,-957 -320,-914 222,-1540 265,-1725 -303,46 -520,452 -602,747 -113,402 -33,777 63,1146 321,1240 1216,1114 1431,877l-91 -53zm-6735 -4207c74,-33 68,-113 119,-215 131,-255 237,-385 393,-621 446,-673 875,-852 1540,-1172l938 -381c-118,-76 -471,-34 -631,1 -830,184 -1640,684 -2067,1401 -101,170 -411,731 -292,987zm5407 -79l46 93c131,176 -135,-106 39,42 109,92 1227,461 2095,1351 72,73 545,616 559,625 83,-130 -3,-366 -71,-485 -422,-736 -2049,-1593 -2668,-1626zm-4554 -1942c321,-68 1087,-1059 2869,-910 99,8 141,27 248,30 55,2 79,2 132,-10 74,-17 38,-5 80,-35 -135,-183 -767,-171 -978,-170 -811,3 -2147,317 -2351,1095zm4179 518c143,134 241,303 385,357 -3,-128 -124,-314 -173,-432 -64,-156 -48,-260 -85,-425l-17 -60c-6,-74 -836,-517 -1581,-321 -154,40 -110,13 -152,99 94,47 504,50 693,116 282,98 716,466 930,666zm-2757 -1801c228,-18 236,-210 673,-348 633,-202 1244,-137 1855,8 242,58 640,241 860,270 -43,-95 -37,-108 -156,-177 -60,-35 -128,-71 -176,-96 -266,-140 -1135,-327 -1431,-342 -407,-22 -683,13 -1005,136 -220,85 -557,344 -620,549zm5337 969c147,345 215,287 344,554 171,355 -24,424 -136,492 -44,27 -39,21 -69,49 79,148 79,88 248,185 87,50 164,111 247,168 386,266 795,739 889,1197 36,176 -16,235 91,334 87,-126 21,-355 -27,-499 -293,-876 -552,-473 -853,-1478 -50,-166 -102,-260 -174,-387 -143,-254 -290,-551 -560,-615zm-3 2090c156,0 300,-28 470,-30 326,-4 334,-294 -183,-144 -300,87 -226,58 -287,174z"/> 
  </g>
 </g>
</svg>